<svg width="1371" height="910" viewBox="0 0 1371 910" fill="none" xmlns="http://www.w3.org/2000/svg">
<g opacity="0.15">
<path fill-rule="evenodd" clip-rule="evenodd" d="M953.928 661.428C956.805 660.864 958.91 658.361 958.997 655.43V655.43C958.999 655.366 959 655.394 959 655.33V655.33C958.973 651.902 955.588 649.002 952.224 649.662L938.796 652.293C936.01 652.839 934 655.281 934 658.12V658.12C934 661.857 937.412 664.665 941.079 663.946L953.928 661.428ZM921 726.439C921 728.965 923.319 730.854 925.793 730.342L955.822 724.131C957.673 723.748 959 722.118 959 720.228V720.228C959 717.702 956.681 715.814 954.207 716.325L924.178 722.536C922.327 722.919 921 724.549 921 726.439V726.439ZM52.5513 681.319C53.3942 681.148 54 680.407 54 679.547V679.547C54 678.403 52.9521 677.547 51.8315 677.774L19.4487 684.349C18.6058 684.52 18 685.261 18 686.121V686.121C18 687.265 19.0479 688.121 20.1684 687.894L52.5513 681.319ZM1338.55 661.32C1339.39 661.149 1340 660.407 1340 659.547V659.547C1340 658.403 1338.95 657.547 1337.83 657.774L1305.45 664.349C1304.61 664.52 1304 665.261 1304 666.121V666.121C1304 667.265 1305.05 668.121 1306.17 667.894L1338.55 661.32Z" fill="white"/>
<path fill-rule="evenodd" clip-rule="evenodd" d="M147 752.866C147 758.277 151.956 762.333 157.261 761.261L202.131 752.198C206.127 751.39 209 747.879 209 743.802V743.802C209 738.39 204.044 734.335 198.739 735.407L153.869 744.47C149.873 745.278 147 748.789 147 752.866V752.866Z" fill="#666666"/>
<path fill-rule="evenodd" clip-rule="evenodd" d="M694 784.051C694 786.265 696.028 787.924 698.198 787.485L715.19 784.052C716.825 783.721 718 782.285 718 780.617V780.617C718 778.403 715.972 776.744 713.802 777.182L696.81 780.616C695.175 780.946 694 782.383 694 784.051V784.051ZM697 63.0507C697 65.2649 699.028 66.924 701.198 66.4855L718.19 63.0518C719.825 62.7214 721 61.2847 721 59.617V59.617C721 57.4028 718.972 55.7437 716.802 56.1823L699.81 59.616C698.175 59.9463 697 61.383 697 63.0507V63.0507ZM86.3149 898.085C86.3149 904.081 91.8142 908.568 97.688 907.366L189.903 888.494C194.311 887.592 197.477 883.713 197.477 879.213V879.213C197.477 873.217 191.978 868.729 186.104 869.931L93.8891 888.804C89.4805 889.706 86.3149 893.585 86.3149 898.085V898.085ZM275 207.38C275 211.486 278.769 214.557 282.789 213.727L360.829 197.633C363.84 197.012 366 194.361 366 191.287V191.287C366 187.182 362.231 184.111 358.211 184.94L280.172 201.033C277.16 201.654 275 204.306 275 207.38V207.38ZM464 866.804C464 869.126 466.154 870.848 468.418 870.337L530.176 856.395C531.827 856.023 533 854.556 533 852.863V852.863C533 850.542 530.846 848.82 528.582 849.331L466.824 863.272C465.173 863.645 464 865.112 464 866.804V866.804Z" fill="white"/>
<path fill-rule="evenodd" clip-rule="evenodd" d="M1171.85 646.243C1178.94 644.741 1184 638.49 1184 631.251V631.251C1184 621.508 1175.03 614.238 1165.49 616.26L1141.15 621.425C1134.06 622.927 1129 629.178 1129 636.417V636.417C1129 646.16 1137.97 653.43 1147.51 651.408L1171.85 646.243Z" fill="#666666"/>
<path fill-rule="evenodd" clip-rule="evenodd" d="M903.293 69.6919C902.815 74.7478 907.373 78.8268 912.342 77.7741L1083.01 41.6132C1086.5 40.8756 1088.99 37.8025 1088.99 34.2439V34.2439C1088.99 29.4553 1084.58 25.8822 1079.89 26.8747L909.222 63.0328C906.002 63.715 903.603 66.4151 903.293 69.6919V69.6919ZM312.065 736.62C312.101 742.66 317.651 747.176 323.563 745.943L474.383 714.478C478.821 713.552 482 709.641 482 705.108V705.108C482 699.036 476.418 694.498 470.474 695.739L319.661 727.2C315.209 728.129 312.038 732.072 312.065 736.62V736.62Z" fill="white"/>
<path fill-rule="evenodd" clip-rule="evenodd" d="M195 831.542C195 833.504 196.795 834.975 198.718 834.589L415.503 791.172C416.955 790.881 418 789.606 418 788.125V788.125C418 786.164 416.205 784.693 414.283 785.079L197.497 828.495C196.045 828.786 195 830.061 195 831.542V831.542ZM962 190.732C962 193.114 964.177 194.902 966.514 194.439L1131.96 161.642C1133.73 161.292 1135 159.739 1135 157.936V157.936C1135 155.554 1132.82 153.766 1130.49 154.229L965.044 187.026C963.275 187.376 962 188.929 962 190.732V190.732Z" fill="#666666"/>
<path fill-rule="evenodd" clip-rule="evenodd" d="M685.039 29.4738C685.039 33.4251 688.591 36.4285 692.487 35.7721L822.596 13.8522C825.67 13.3341 827.922 10.6717 827.922 7.5535V7.5535C827.922 3.60188 824.37 0.598312 820.473 1.25483L690.365 23.1756C687.29 23.6936 685.039 26.3559 685.039 29.4738V29.4738Z" fill="white"/>
<path fill-rule="evenodd" clip-rule="evenodd" d="M161.595 164.635C161.304 166.931 163.368 168.825 165.631 168.339L275.346 144.776C276.894 144.444 278 143.075 278 141.492V141.492C278 139.352 276.027 137.758 273.935 138.207L164.224 161.77C162.829 162.069 161.775 163.219 161.595 164.635V164.635ZM959.101 865.338C959.049 867.894 961.389 869.833 963.89 869.308L1107.74 839.14C1109.55 838.76 1110.86 837.18 1110.9 835.33V835.33C1110.95 832.774 1108.61 830.835 1106.11 831.36L962.259 861.529C960.448 861.909 959.138 863.488 959.101 865.338V865.338Z" fill="#666666"/>
<path fill-rule="evenodd" clip-rule="evenodd" d="M257 425.859C257 428.169 259.12 429.897 261.383 429.43L407.09 399.38C408.784 399.031 410 397.539 410 395.809V395.809C410 393.499 407.879 391.771 405.617 392.238L259.91 422.288C258.216 422.637 257 424.129 257 425.859V425.859ZM202 651.104C202 654.84 205.424 657.639 209.086 656.895L310.266 636.356C313.02 635.797 315 633.375 315 630.564V630.564C315 626.828 311.576 624.029 307.914 624.772L206.734 645.312C203.98 645.871 202 648.293 202 651.104V651.104ZM731 658.214C731 662.937 735.314 666.483 739.947 665.57L753.953 662.808C757.467 662.115 760 659.034 760 655.453V655.453C760 650.73 755.686 647.184 751.053 648.098L737.047 650.859C733.533 651.551 731 654.633 731 658.214V658.214ZM294 86.1041C294 90.871 298.372 94.4392 303.042 93.4836L422.977 68.9431C426.483 68.2259 429 65.1416 429 61.5636V61.5636C429 56.7966 424.628 53.2284 419.958 54.184L300.022 78.7245C296.517 79.4418 294 82.5261 294 86.1041V86.1041ZM349 540.818C349 542.107 350.196 543.063 351.454 542.779L373.433 537.81C374.349 537.603 375 536.789 375 535.849V535.849C375 534.56 373.804 533.604 372.546 533.888L350.567 538.857C349.651 539.064 349 539.878 349 540.818V540.818ZM250 283.193C250 287.914 254.33 291.449 258.956 290.503L282.033 285.786C285.506 285.076 288 282.02 288 278.475V278.475C288 273.754 283.67 270.219 279.044 271.165L255.967 275.882C252.494 276.592 250 279.648 250 283.193V283.193ZM1333 496.192C1333 500.914 1337.33 504.449 1341.96 503.503L1365.03 498.786C1368.51 498.076 1371 495.02 1371 491.475V491.475C1371 486.753 1366.67 483.219 1362.04 484.165L1338.97 488.882C1335.49 489.592 1333 492.647 1333 496.192V496.192ZM1065 311.381C1065 315.486 1068.77 318.557 1072.79 317.727L1150.83 301.633C1153.84 301.012 1156 298.361 1156 295.287V295.287C1156 291.182 1152.23 288.111 1148.21 288.94L1070.17 305.034C1067.16 305.655 1065 308.307 1065 311.381V311.381Z" fill="white"/>
<path fill-rule="evenodd" clip-rule="evenodd" d="M1310.67 340.85C1317.86 339.312 1323 332.96 1323 325.608V325.608C1323 315.687 1313.85 308.291 1304.15 310.367L1269.33 317.818C1262.14 319.356 1257 325.708 1257 333.06V333.06C1257 342.981 1266.15 350.377 1275.85 348.301L1310.67 340.85Z" fill="#666666"/>
<path fill-rule="evenodd" clip-rule="evenodd" d="M107.674 495.85C114.863 494.312 120 487.96 120 480.608V480.608C120 470.687 110.854 463.291 101.152 465.367L66.3257 472.818C59.1368 474.356 54 480.708 54 488.06V488.06C54 497.981 63.1462 505.377 72.8478 503.302L107.674 495.85ZM1021 516.859C1021 519.169 1023.12 520.897 1025.38 520.43L1171.09 490.38C1172.78 490.031 1174 488.539 1174 486.809V486.809C1174 484.499 1171.88 482.771 1169.62 483.238L1023.91 513.288C1022.22 513.637 1021 515.129 1021 516.859V516.859Z" fill="white"/>
<path fill-rule="evenodd" clip-rule="evenodd" d="M-9.36044e-07 323.627C-4.52628e-07 329.157 5.0722 333.295 10.4894 332.186L111.016 311.6C115.081 310.768 118 307.191 118 303.041V303.041C118 297.511 112.928 293.373 107.511 294.482L6.98397 315.068C2.91878 315.9 -1.29881e-06 319.477 -9.36044e-07 323.627V323.627Z" fill="#666666"/>
<path fill-rule="evenodd" clip-rule="evenodd" d="M977 408.193C977 412.914 981.33 416.449 985.956 415.503L1009.03 410.786C1012.51 410.076 1015 407.02 1015 403.475V403.475C1015 398.754 1010.67 395.219 1006.04 396.165L982.967 400.882C979.494 401.592 977 404.648 977 408.193V408.193ZM235 207.247C235 208.33 235.986 209.146 237.05 208.942L246.598 207.117C247.412 206.962 248 206.25 248 205.422V205.422C248 204.338 247.014 203.523 245.95 203.726L236.402 205.551C235.588 205.707 235 206.418 235 207.247V207.247Z" fill="white"/>
</g>
</svg>
